<?xml version="1.0" standalone="no"?>
<!DOCTYPE svg PUBLIC "-//W3C//DTD SVG 20010904//EN"
 "http://www.w3.org/TR/2001/REC-SVG-20010904/DTD/svg10.dtd">
<svg version="1.0" xmlns="http://www.w3.org/2000/svg"
 width="672.000000pt" height="672.000000pt" viewBox="0 0 672.000000 672.000000"
 preserveAspectRatio="xMidYMid meet">
<metadata>
Created by potrace 1.14, written by Peter Selinger 2001-2017
</metadata>
<g transform="translate(0.000000,672.000000) scale(0.100000,-0.100000)"
fill="#000000" stroke="none">
<path d="M5 6178 c3 -13 21 -88 40 -168 20 -80 38 -161 41 -180 3 -19 8 -39
12 -44 3 -5 6 -19 8 -30 2 -18 33 -148 99 -422 28 -112 87 -364 110 -465 7
-34 37 -157 51 -214 8 -33 17 -71 20 -85 3 -14 7 -33 10 -42 3 -9 7 -25 9 -35
7 -30 36 -156 46 -198 5 -22 12 -49 14 -60 2 -11 20 -87 40 -170 21 -82 39
-159 41 -170 1 -11 24 -105 49 -210 26 -104 49 -201 51 -215 3 -14 10 -43 16
-65 5 -22 12 -47 13 -56 2 -9 8 -33 13 -53 6 -20 8 -36 6 -36 -3 0 0 -8 5 -17
5 -10 11 -31 14 -48 3 -16 8 -39 11 -50 16 -66 38 -162 41 -175 2 -8 8 -33 14
-55 5 -22 13 -55 16 -74 3 -19 8 -37 10 -41 2 -4 7 -20 10 -36 3 -16 19 -85
35 -154 17 -69 33 -136 36 -150 3 -14 19 -81 35 -150 38 -156 78 -327 85 -360
3 -14 10 -43 16 -65 13 -51 19 -76 22 -95 2 -8 6 -26 9 -40 10 -39 86 -358
103 -430 8 -36 19 -83 25 -105 5 -22 11 -49 13 -60 2 -11 16 -67 31 -125 15
-58 28 -114 29 -125 2 -11 6 -30 10 -42 4 -12 8 -30 10 -40 2 -10 17 -70 32
-133 15 -63 27 -119 26 -123 -1 -4 2 -17 8 -28 11 -19 22 -19 442 -17 l431 3
23 80 c104 370 156 552 159 565 2 8 17 65 35 125 17 61 33 115 34 120 11 42
30 110 47 165 10 36 21 74 23 85 5 23 80 287 100 355 13 40 30 104 42 150 2 8
13 47 24 85 12 39 23 77 25 85 3 8 9 31 14 50 5 19 19 69 31 110 11 41 23 86
26 99 3 14 14 50 24 81 10 31 21 67 24 81 3 13 23 87 45 164 22 77 45 160 52
185 7 25 14 50 15 55 24 82 106 373 108 380 1 6 8 30 15 55 7 25 14 52 16 60
2 8 8 26 13 40 5 14 10 27 10 30 0 3 9 37 21 75 11 39 22 79 24 90 2 11 7 27
10 35 3 8 9 29 13 45 4 17 8 35 10 40 2 6 16 57 33 115 16 58 34 120 40 138 5
18 10 33 9 35 -1 4 23 93 32 117 5 14 16 51 25 83 8 31 21 57 28 57 9 0 81
-231 112 -360 2 -8 8 -28 15 -45 6 -16 11 -31 11 -32 -1 -2 -1 -4 0 -5 0 -2 2
-14 5 -28 2 -14 9 -36 14 -50 5 -14 12 -36 14 -50 3 -14 5 -26 7 -27 1 -2 2
-6 3 -10 0 -5 7 -26 13 -48 11 -35 110 -383 117 -410 14 -53 22 -82 43 -155
13 -47 26 -92 28 -100 2 -8 11 -40 20 -70 9 -30 17 -62 20 -70 2 -8 13 -49 25
-90 26 -92 25 -89 34 -125 4 -16 10 -37 13 -45 7 -18 10 -29 16 -55 2 -11 11
-45 20 -75 24 -81 98 -343 102 -360 2 -8 4 -15 5 -15 1 0 3 -7 5 -15 4 -22 42
-162 70 -255 13 -44 40 -141 60 -215 20 -74 46 -164 57 -200 11 -36 21 -72 23
-80 3 -17 78 -288 99 -360 13 -41 22 -80 27 -105 1 -5 10 -32 19 -60 9 -27 18
-54 20 -60 1 -5 4 -14 5 -20 2 -5 22 -77 45 -160 22 -82 43 -158 45 -168 2 -9
6 -21 9 -25 3 -5 8 -24 11 -42 3 -18 8 -37 11 -42 3 -4 198 -8 434 -8 400 0
429 1 434 18 7 23 113 471 120 502 3 14 19 81 36 149 17 68 31 135 32 148 1
12 7 23 12 23 5 0 7 2 4 5 -3 3 6 49 19 103 13 53 25 106 27 117 2 11 9 40 15
65 6 25 14 54 17 65 2 11 9 42 14 69 6 27 15 68 22 90 13 47 14 52 21 86 3 14
15 66 27 115 12 50 23 97 25 105 2 8 20 83 40 165 20 83 39 161 41 174 3 14
14 61 25 105 11 45 22 92 25 106 3 14 9 41 14 60 5 19 11 46 14 60 3 14 7 34
10 45 35 139 56 228 60 247 2 13 9 41 15 63 6 22 12 49 14 60 2 11 9 38 15 60
6 22 13 51 16 65 2 14 25 113 51 220 50 208 54 224 60 255 3 11 7 30 10 43 3
12 7 31 10 43 2 11 7 29 10 39 3 10 8 27 10 37 2 10 15 67 29 127 14 59 28
121 31 137 3 15 9 39 15 53 5 15 7 26 5 26 -2 0 0 11 5 25 9 24 12 37 26 103
3 15 11 52 19 83 8 30 17 66 19 80 2 13 5 24 6 24 1 0 3 7 5 15 2 8 6 26 9 40
3 14 13 57 22 95 8 39 17 75 18 80 2 6 6 24 10 40 4 17 11 46 17 65 5 19 11
46 14 60 2 14 14 63 25 110 12 47 24 96 27 110 5 26 6 30 16 70 11 40 78 323
83 345 13 65 58 258 70 300 7 28 15 61 18 75 3 14 10 41 15 60 6 19 11 38 11
42 0 5 -225 8 -500 8 -275 0 -500 -2 -500 -4 0 -2 -12 -59 -26 -127 -14 -68
-27 -135 -30 -149 -2 -14 -10 -50 -16 -80 -6 -30 -12 -59 -14 -65 -1 -5 -10
-48 -19 -95 -10 -47 -19 -94 -21 -105 -2 -11 -5 -31 -8 -45 -13 -58 -17 -76
-20 -95 -2 -11 -23 -110 -45 -220 -23 -110 -44 -213 -47 -230 -3 -16 -9 -48
-14 -70 -5 -22 -12 -56 -15 -75 -3 -19 -11 -55 -16 -80 -6 -25 -12 -54 -15
-65 -2 -11 -13 -65 -24 -120 -11 -55 -23 -111 -25 -125 -17 -80 -27 -128 -31
-150 -3 -14 -13 -68 -24 -120 -11 -52 -22 -106 -24 -120 -3 -14 -8 -36 -11
-50 -3 -14 -7 -36 -10 -50 -14 -72 -21 -107 -29 -140 -3 -14 -8 -36 -10 -50
-3 -14 -12 -58 -20 -97 -9 -40 -18 -87 -21 -105 -3 -18 -8 -46 -11 -62 -3 -16
-6 -32 -8 -35 -2 -3 -7 -23 -10 -43 -3 -21 -10 -57 -15 -80 -6 -24 -12 -54
-15 -68 -2 -14 -9 -45 -15 -70 -5 -25 -12 -58 -15 -75 -5 -30 -21 -107 -31
-155 -5 -24 -34 -169 -40 -200 -2 -8 -4 -15 -5 -15 -1 0 -3 -12 -5 -28 -2 -15
-9 -51 -15 -80 -6 -30 -13 -67 -16 -83 -3 -16 -7 -37 -10 -46 -3 -9 -7 -27 -9
-40 -5 -23 -20 -99 -30 -148 -2 -14 -12 -59 -20 -100 -9 -41 -18 -85 -19 -98
-3 -23 -22 -50 -29 -41 -2 2 -16 51 -31 109 -16 58 -39 143 -52 190 -12 47
-25 96 -28 110 -3 14 -16 66 -30 115 -36 130 -96 357 -101 379 -2 10 -11 42
-19 70 -8 28 -17 62 -20 76 -10 45 -23 95 -35 123 -6 15 -8 27 -6 27 2 0 0 11
-5 25 -5 14 -12 36 -14 48 -3 12 -13 49 -22 82 -9 33 -18 67 -19 75 -2 8 -8
30 -14 48 -5 17 -8 32 -5 32 3 0 0 8 -5 18 -6 11 -12 30 -15 43 -3 13 -16 67
-31 119 -14 52 -27 102 -30 110 -15 59 -25 100 -35 135 -18 69 -20 75 -24 93
-2 9 -9 37 -16 62 -7 25 -13 50 -15 55 -1 6 -5 17 -8 25 -3 8 -8 26 -10 40 -6
29 -12 53 -26 98 -5 18 -10 33 -10 35 0 1 -2 9 -4 17 -3 8 -10 35 -16 60 -6
25 -31 122 -56 215 -26 94 -49 184 -52 200 -3 17 -9 37 -14 46 -4 9 -10 27
-13 40 -5 28 -42 169 -167 637 -49 183 -91 343 -93 355 -3 12 -15 59 -28 105
l-22 82 -417 0 c-460 0 -421 5 -434 -57 -2 -10 -11 -45 -20 -78 -19 -69 -23
-87 -30 -116 -2 -12 -12 -47 -21 -78 -9 -31 -18 -64 -19 -73 -2 -9 -13 -51
-25 -93 -12 -42 -23 -84 -25 -95 -2 -10 -17 -67 -33 -126 -17 -60 -34 -125
-38 -144 -9 -41 -7 -34 -34 -130 -12 -41 -25 -91 -30 -110 -4 -19 -18 -71 -30
-115 -12 -44 -23 -87 -25 -95 -2 -8 -8 -30 -14 -47 -5 -18 -7 -33 -4 -33 3 0
0 -7 -7 -15 -7 -8 -10 -15 -6 -15 3 0 1 -11 -4 -25 -5 -14 -12 -36 -14 -48 -3
-12 -24 -92 -46 -177 -23 -85 -57 -213 -75 -285 -19 -71 -46 -173 -60 -225
-14 -52 -28 -103 -30 -113 -2 -10 -13 -51 -24 -91 -11 -40 -22 -83 -25 -97 -3
-13 -28 -109 -56 -214 -48 -179 -107 -402 -115 -435 -2 -8 -4 -15 -5 -15 -1 0
-3 -7 -5 -15 -1 -8 -17 -69 -35 -135 -17 -66 -34 -128 -36 -137 -2 -10 -7 -28
-10 -40 -3 -13 -7 -30 -9 -38 -2 -8 -4 -15 -5 -15 -1 0 -3 -7 -5 -15 -1 -8
-11 -44 -20 -80 -9 -36 -19 -72 -20 -80 -2 -8 -4 -15 -5 -15 -1 0 -3 -7 -5
-15 -1 -8 -19 -78 -40 -155 -20 -77 -38 -144 -39 -150 -7 -32 -19 -55 -29 -55
-11 0 -38 111 -53 215 -2 16 -7 39 -11 50 -7 22 -8 24 -17 75 -3 19 -15 78
-26 130 -11 52 -22 106 -25 120 -3 14 -8 36 -11 50 -4 14 -8 36 -10 50 -2 14
-6 36 -10 50 -3 14 -8 36 -10 50 -3 14 -16 79 -30 145 -14 66 -27 131 -30 145
-3 14 -13 66 -24 115 -10 50 -21 101 -24 115 -4 23 -41 206 -52 255 -12 61
-25 123 -29 143 -2 13 -6 31 -9 40 -3 9 -8 31 -10 47 -7 41 -19 97 -66 325
-22 107 -47 229 -55 270 -8 41 -18 86 -21 100 -3 14 -8 39 -11 55 -2 17 -7 37
-10 45 -3 8 -7 24 -8 35 -4 22 -8 45 -24 125 -7 30 -14 71 -17 90 -3 19 -8 38
-10 42 -3 4 -9 31 -14 60 -11 60 -15 84 -36 183 -8 38 -17 86 -20 105 -3 19
-8 38 -11 43 -2 4 -6 20 -9 35 -4 25 -18 99 -28 147 -21 97 -51 243 -62 300
-8 39 -17 81 -20 95 -3 14 -7 39 -10 55 -3 17 -12 57 -21 90 -8 33 -15 68 -14
78 0 16 -31 17 -500 17 l-499 0 5 -22z"/>
</g>
</svg>
